<?xml version="1.0" encoding="UTF-8" ?>
<svg version="1.1" width="480" height="200" xmlns="http://www.w3.org/2000/svg" shape-rendering="crispEdges">
<rect x="0" y="176" width="221" height="24" fill="#696A6A" />
<rect x="221" y="176" width="4" height="7" fill="#FFF652" />
<rect x="225" y="176" width="2" height="5" fill="#696A6A" />
<rect x="227" y="176" width="2" height="2" fill="#FFF652" />
<rect x="229" y="176" width="2" height="2" fill="#000000" />
<rect x="231" y="176" width="1" height="4" fill="#FFF652" />
<rect x="232" y="176" width="4" height="2" fill="#000000" />
<rect x="236" y="176" width="2" height="4" fill="#FFF652" />
<rect x="238" y="176" width="3" height="5" fill="#696A6A" />
<rect x="241" y="176" width="4" height="8" fill="#FFF652" />
<rect x="245" y="176" width="235" height="24" fill="#696A6A" />
<rect x="227" y="178" width="1" height="4" fill="#696A6A" />
<rect x="228" y="178" width="3" height="1" fill="#FFF652" />
<rect x="232" y="178" width="4" height="2" fill="#FFF652" />
<rect x="228" y="179" width="3" height="3" fill="#696A6A" />
<rect x="231" y="180" width="3" height="3" fill="#696A6A" />
<rect x="234" y="180" width="3" height="1" fill="#FFF652" />
<rect x="237" y="180" width="1" height="3" fill="#696A6A" />
<rect x="225" y="181" width="1" height="5" fill="#FFF652" />
<rect x="226" y="181" width="1" height="1" fill="#696A6A" />
<rect x="234" y="181" width="3" height="2" fill="#696A6A" />
<rect x="238" y="181" width="2" height="1" fill="#696A6A" />
<rect x="240" y="181" width="1" height="5" fill="#FFF652" />
<rect x="226" y="182" width="3" height="4" fill="#FFF652" />
<rect x="229" y="182" width="2" height="1" fill="#696A6A" />
<rect x="238" y="182" width="1" height="1" fill="#696A6A" />
<rect x="239" y="182" width="1" height="5" fill="#FFF652" />
<rect x="221" y="183" width="1" height="17" fill="#696A6A" />
<rect x="222" y="183" width="3" height="1" fill="#FFF652" />
<rect x="229" y="183" width="10" height="4" fill="#FFF652" />
<rect x="222" y="184" width="1" height="16" fill="#696A6A" />
<rect x="223" y="184" width="2" height="1" fill="#FFF652" />
<rect x="241" y="184" width="3" height="1" fill="#FFF652" />
<rect x="244" y="184" width="1" height="16" fill="#696A6A" />
<rect x="223" y="185" width="1" height="15" fill="#696A6A" />
<rect x="224" y="185" width="1" height="1" fill="#FFF652" />
<rect x="241" y="185" width="1" height="1" fill="#FFF652" />
<rect x="242" y="185" width="2" height="15" fill="#696A6A" />
<rect x="224" y="186" width="3" height="14" fill="#696A6A" />
<rect x="227" y="186" width="2" height="1" fill="#FFF652" />
<rect x="240" y="186" width="2" height="14" fill="#696A6A" />
<rect x="227" y="187" width="13" height="13" fill="#696A6A" />
</svg>