<?xml version="1.0" encoding="UTF-8" ?>
<svg version="1.1" width="60" height="60" xmlns="http://www.w3.org/2000/svg" shape-rendering="crispEdges">
<rect x="29" y="9" width="2" height="12" fill="#000000" />
<rect x="28" y="12" width="1" height="9" fill="#000000" />
<rect x="31" y="12" width="1" height="9" fill="#000000" />
<rect x="27" y="13" width="1" height="9" fill="#000000" />
<rect x="32" y="13" width="1" height="9" fill="#000000" />
<rect x="26" y="15" width="1" height="7" fill="#000000" />
<rect x="33" y="15" width="1" height="7" fill="#000000" />
<rect x="25" y="16" width="1" height="7" fill="#000000" />
<rect x="34" y="16" width="1" height="7" fill="#000000" />
<rect x="24" y="17" width="1" height="7" fill="#000000" />
<rect x="35" y="17" width="1" height="7" fill="#000000" />
<rect x="23" y="18" width="1" height="8" fill="#000000" />
<rect x="36" y="18" width="1" height="8" fill="#000000" />
<rect x="22" y="20" width="1" height="31" fill="#000000" />
<rect x="37" y="20" width="1" height="32" fill="#000000" />
<rect x="20" y="21" width="2" height="29" fill="#000000" />
<rect x="38" y="21" width="2" height="30" fill="#000000" />
<rect x="19" y="22" width="1" height="28" fill="#000000" />
<rect x="40" y="22" width="1" height="29" fill="#000000" />
<rect x="18" y="26" width="1" height="23" fill="#000000" />
<rect x="41" y="26" width="1" height="24" fill="#000000" />
<rect x="17" y="28" width="1" height="9" fill="#000000" />
<rect x="42" y="28" width="1" height="9" fill="#000000" />
<rect x="23" y="30" width="1" height="22" fill="#000000" />
<rect x="36" y="30" width="1" height="22" fill="#000000" />
<rect x="24" y="32" width="1" height="16" fill="#000000" />
<rect x="35" y="32" width="1" height="16" fill="#000000" />
<rect x="25" y="33" width="1" height="13" fill="#000000" />
<rect x="34" y="33" width="1" height="13" fill="#000000" />
<rect x="26" y="34" width="2" height="11" fill="#000000" />
<rect x="32" y="34" width="2" height="11" fill="#000000" />
<rect x="28" y="35" width="4" height="9" fill="#000000" />
<rect x="17" y="41" width="1" height="6" fill="#000000" />
<rect x="42" y="41" width="1" height="7" fill="#000000" />
<rect x="21" y="50" width="1" height="1" fill="#000000" />
<rect x="38" y="51" width="1" height="1" fill="#000000" />
</svg>